<?xml version="1.0" standalone="no"?><!DOCTYPE svg PUBLIC "-//W3C//DTD SVG 1.1//EN" "http://www.w3.org/Graphics/SVG/1.1/DTD/svg11.dtd"><svg t="1572246146995" class="icon" viewBox="0 0 1024 1024" version="1.1" xmlns="http://www.w3.org/2000/svg" p-id="1307" xmlns:xlink="http://www.w3.org/1999/xlink" width="32" height="32"><defs><style type="text/css"></style></defs><path d="M717.061 529.061c-9.763 9.763-25.592 9.763-35.355 0l-374.767-374.767c-9.763-9.763-9.763-25.592 0-35.355 9.763-9.763 25.592-9.763 35.355 0L717.061 493.706c9.763 9.763 9.763 25.592 0 35.355z" fill="#333333" p-id="1308"></path><path d="M717.061 494.939c9.763 9.763 9.763 25.592 0 35.355l-374.767 374.767c-9.763 9.763-25.592 9.763-35.355 0-9.763-9.763-9.763-25.592 0-35.355L681.706 494.939c9.763-9.763 25.592-9.763 35.355 0z" fill="#333333" p-id="1309"></path></svg>